{"title":"Sherlock Holmes A Game of Shadows 1080p BluRay Dual By wall.e","uid":7481910,"size":4560872242,"categoryP":"video","categoryS":"hd___movies","magnet":"?xt=urn:btih:fb5b58d86180898ccb476b90a92e402d77b5c03b&amp;dn=Sherlock+Holmes+A+Game+of+Shadows+1080p+BluRay+Dual+By+wall.e&amp;tr=udp%3A%2F%2Ftracker.openbittorrent.com%3A80&amp;tr=udp%3A%2F%2Fopen.demonii.com%3A1337&amp;tr=udp%3A%2F%2Ftracker.coppersurfer.tk%3A6969&amp;tr=udp%3A%2F%2Fexodus.desync.com%3A6969","seeders":1,"leechers":0,"uploader":"wall.e","files":14,"time":1343460306,"description":"Format                           : Matroska\nFile size                        : 4.21 GiB\nDuration                         : 2h 8mn\nOverall bit rate                 : 4684 Kbps\n\nVideo\nID                               : 1\nFormat                           : AVC\nFormat/Info                      : Advanced Video Codec\nBit rate                         : 4044 Kbps\nMaximum bit rate                 : 40.0 Mbps\nWidth                            : 1920 pixels\nHeight                           : 800 pixels\nDisplay aspect ratio             : 2.40:1\nFrame rate                       : 23.976 fps\nColor space                      : YUV\nChroma subsampling               : 4:2:0\nStream size                      : 3.55 GiB (84%)\nTitle                            : 1080p BluRay By Ashish7(wall.e)\n\nAudio #1\nID                               : 2\nFormat                           : AC-3\nFormat/Info                      : Audio Coding 3\nBit rate                         : 384 Kbps\nChannel(s)                       : 6 channels\nChannel positions                : Front: L C R, Side: L R, LFE\nSampling rate                    : 48.0 KHz\nBit depth                        : 16 bits\nStream size                      : 354 MiB (8%)\nTitle                            : 5.1 English Audio By Ashish7(wall.e)\n\nAudio #2\nID                               : 3\nFormat                           : AC-3\nFormat/Info                      : Audio Coding 3\nBit rate                         : 256 Kbps\nChannel(s)                       : 2 channels\nChannel positions                : Front: L R\nSampling rate                    : 48.0 KHz\nBit depth                        : 16 bits\nStream size                      : 236 MiB (5%)\nTitle                            : Hindi Audio By Ashish7(wall.e)","torrent":{"xt":"urn:btih:fb5b58d86180898ccb476b90a92e402d77b5c03b","amp;dn":"Sherlock+Holmes+A+Game+of+Shadows+1080p+BluRay+Dual+By+wall.e","amp;tr":["udp%3A%2F%2Ftracker.openbittorrent.com%3A80","udp%3A%2F%2Fopen.demonii.com%3A1337","udp%3A%2F%2Ftracker.coppersurfer.tk%3A6969","udp%3A%2F%2Fexodus.desync.com%3A6969"],"infoHash":"fb5b58d86180898ccb476b90a92e402d77b5c03b","infoHashBuffer":{"type":"Buffer","data":[251,91,88,216,97,128,137,140,203,71,107,144,169,46,64,45,119,181,192,59]},"announce":[],"urlList":[]}}